<svg width="38" height="38" fill="none" xmlns="http://www.w3.org/2000/svg"><path d="M37.243 34.658H4.538l4.127-4.61c.363.193.775.303 1.214.303a2.6 2.6 0 0 0 2.314-1.424l4.217 1.069a2.607 2.607 0 0 0 2.59 2.39c1.433 0 2.6-1.171 2.6-2.61 0-.794-.355-1.505-.914-1.984l3.439-8.252 2.449 6.27a2.61 2.61 0 0 0-.96 2.023c0 1.44 1.166 2.61 2.6 2.61a2.608 2.608 0 0 0 2.46-3.45l3.004-3.016a.762.762 0 0 0 0-1.075.755.755 0 0 0-1.07 0l-2.834 2.845a2.579 2.579 0 0 0-1.799-.512l-3.01-7.709 3.024-7.258a2.606 2.606 0 0 0 2.737-1.932h4.766c.418 0 .757-.34.757-.76s-.339-.76-.757-.76H30.67a2.604 2.604 0 0 0-2.457-1.757c-1.433 0-2.6 1.17-2.6 2.61 0 .82.38 1.553.972 2.032l-2.415 5.793-3.527-9.03a2.608 2.608 0 0 0-1.736-4.551 2.608 2.608 0 0 0-2.017 4.255l-6.24 9.492a2.578 2.578 0 0 0-1.749.007l-5.36-7.081V.824c0-.42-.339-.76-.757-.76a.759.759 0 0 0-.757.76v7.473H.757a.758.758 0 0 0-.757.76c0 .42.339.76.757.76h1.27v7.637H.757a.758.758 0 0 0-.757.76c0 .42.339.76.757.76h1.27v7.822H.757a.758.758 0 0 0-.757.76c0 .42.339.76.757.76h1.27v7.102c0 .42.339.76.757.76h6.522v.998c0 .42.339.76.757.76s.757-.34.757-.76v-.998h7.607v.998c0 .42.34.76.757.76.418 0 .757-.34.757-.76v-.998h7.792v.998c0 .42.339.76.757.76s.757-.34.757-.76v-.998h7.996c.418 0 .757-.34.757-.76s-.339-.76-.757-.76Zm-9.03-7.915a1.09 1.09 0 0 1 0 2.18 1.09 1.09 0 0 1 0-2.18Zm0-20.164a1.09 1.09 0 0 1 0 2.18 1.09 1.09 0 0 1 0-2.18ZM9.88 28.831a1.09 1.09 0 0 1 0-2.18 1.09 1.09 0 0 1 0 2.18ZM19 30.866a1.09 1.09 0 0 1 0-2.18 1.09 1.09 0 0 1 0 2.18Zm-.092-27.432a1.09 1.09 0 0 1 0 2.18 1.09 1.09 0 0 1 0-2.18ZM9.786 17.031a1.09 1.09 0 0 1 0 2.18 1.09 1.09 0 0 1 0-2.18Zm-6.245-5.933 4.15 5.481a2.608 2.608 0 0 0 2.096 4.152 2.608 2.608 0 0 0 2.084-4.168l6.274-9.544a2.582 2.582 0 0 0 1.124.09l4.062 10.399-4.033 9.676a2.6 2.6 0 0 0-2.57 1.325l-4.27-1.083a2.607 2.607 0 0 0-2.58-2.295 2.608 2.608 0 0 0-2.289 3.845l-4.048 4.522v-22.4Z" fill="#fff"/><path d="M36.258 20.22a.755.755 0 0 0-1.07 0l-.6.601a.762.762 0 0 0 .536 1.298.753.753 0 0 0 .535-.223l.599-.601a.762.762 0 0 0 0-1.075Z" fill="#fff"/></svg>