<svg width="42" height="42" fill="none" xmlns="http://www.w3.org/2000/svg"><path d="M21 33.377A12.378 12.378 0 1 1 33.377 21 12.391 12.391 0 0 1 21 33.377Zm0-23.62A11.242 11.242 0 1 0 32.242 21 11.255 11.255 0 0 0 21 9.758Z" fill="#fff"/><path d="M21 30.444A9.445 9.445 0 1 1 30.444 21 9.455 9.455 0 0 1 21 30.444Zm0-17.753A8.309 8.309 0 1 0 29.31 21 8.319 8.319 0 0 0 21 12.69Z" fill="#fff"/><path d="M21.945 21.182H19.06a.567.567 0 0 1-.568-.568v-4.64a.567.567 0 0 1 .568-.567h2.886a2.887 2.887 0 1 1 0 5.775Zm-2.319-1.135h2.32a1.752 1.752 0 1 0 0-3.505h-2.32v3.505Z" fill="#fff"/><path d="M22.683 25.824h-3.624a.568.568 0 0 1-.568-.567v-4.643a.568.568 0 0 1 .568-.567h3.624a2.888 2.888 0 0 1 0 5.775v.002Zm-3.057-1.135h3.057a1.752 1.752 0 1 0 0-3.505h-3.057v3.505ZM19.059 16.542h-.829a.568.568 0 0 1 0-1.135h.829a.567.567 0 1 1 0 1.135Z" fill="#fff"/><path d="M19.524 16.542a.567.567 0 0 1-.567-.568V14.93a.568.568 0 0 1 1.135 0v1.044a.568.568 0 0 1-.568.568ZM21.332 16.542a.567.567 0 0 1-.568-.568V14.93a.568.568 0 0 1 1.135 0v1.044a.568.568 0 0 1-.567.568ZM19.524 26.866a.568.568 0 0 1-.567-.568v-1.041a.568.568 0 0 1 1.135 0V26.3a.568.568 0 0 1-.568.566ZM21.332 26.866a.568.568 0 0 1-.568-.568v-1.041a.568.568 0 0 1 1.135 0V26.3a.568.568 0 0 1-.567.566Z" fill="#fff"/><path d="M19.059 25.824h-.829a.567.567 0 1 1 0-1.135h.829a.568.568 0 0 1 0 1.135ZM21 9.758a.567.567 0 0 1-.568-.568V5.253a.567.567 0 1 1 1.136 0V9.19a.567.567 0 0 1-.568.568Z" fill="#fff"/><path d="M21 5.821a2.343 2.343 0 1 1 0-4.686 2.343 2.343 0 0 1 0 4.686Zm0-3.55a1.208 1.208 0 1 0 0 2.414 1.208 1.208 0 0 0 0-2.415ZM21 37.314a.568.568 0 0 1-.568-.567V32.81a.567.567 0 1 1 1.136 0v3.937a.567.567 0 0 1-.568.567Z" fill="#fff"/><path d="M21 40.865a2.343 2.343 0 1 1 0-4.685 2.343 2.343 0 0 1 0 4.685Zm0-3.55a1.207 1.207 0 1 0 0 2.413 1.207 1.207 0 0 0 0-2.414ZM36.747 21.567H32.81a.568.568 0 0 1 0-1.135h3.937a.568.568 0 0 1 0 1.136Z" fill="#fff"/><path d="M38.521 23.343a2.343 2.343 0 1 1 0-4.687 2.343 2.343 0 0 1 0 4.687Zm0-3.55a1.208 1.208 0 1 0 0 2.415 1.208 1.208 0 0 0 0-2.416ZM9.19 21.567H5.253a.568.568 0 0 1 0-1.135H9.19a.568.568 0 0 1 0 1.136Z" fill="#fff"/><path d="M3.478 23.343a2.343 2.343 0 1 1 0-4.687 2.343 2.343 0 0 1 0 4.687Zm0-3.55a1.208 1.208 0 1 0 0 2.415 1.208 1.208 0 0 0 0-2.416ZM11.181 34.694H6.65a.568.568 0 0 1 0-1.135h4.218l2.27-3.641a.568.568 0 1 1 .966.6l-2.436 3.909a.567.567 0 0 1-.487.267Z" fill="#fff"/><path d="M4.875 36.47a2.343 2.343 0 1 1 .001-4.686 2.343 2.343 0 0 1 0 4.686Zm0-3.551a1.208 1.208 0 1 0 .002 2.417 1.208 1.208 0 0 0-.002-2.417ZM13.622 12.35a.568.568 0 0 1-.483-.268l-2.27-3.641h-4.22a.568.568 0 0 1 0-1.135h4.532a.567.567 0 0 1 .482.267l2.436 3.909a.568.568 0 0 1-.477.868Z" fill="#fff"/><path d="M4.875 10.216a2.343 2.343 0 1 1 .001-4.686 2.343 2.343 0 0 1 0 4.686Zm0-3.55a1.208 1.208 0 1 0 .001 2.415 1.208 1.208 0 0 0 0-2.415ZM35.35 34.694H30.82a.568.568 0 0 1-.482-.267l-2.439-3.909a.568.568 0 1 1 .965-.6l2.27 3.641h4.22a.568.568 0 0 1 0 1.135h-.003Z" fill="#fff"/><path d="M37.125 36.47a2.343 2.343 0 1 1 0-4.687 2.343 2.343 0 0 1 0 4.687Zm0-3.551a1.208 1.208 0 1 0 0 2.416 1.208 1.208 0 0 0 0-2.416ZM28.378 12.35a.568.568 0 0 1-.48-.868l2.435-3.909a.568.568 0 0 1 .482-.267h4.534a.567.567 0 1 1 0 1.135h-4.217l-2.27 3.641a.568.568 0 0 1-.483.268Z" fill="#fff"/><path d="M37.125 10.216a2.343 2.343 0 1 1 0-4.686 2.343 2.343 0 0 1 0 4.686Zm0-3.55a1.208 1.208 0 1 0 0 2.415 1.208 1.208 0 0 0 0-2.415Z" fill="#fff"/></svg>