<svg width="38" height="37" fill="none" xmlns="http://www.w3.org/2000/svg"><g clip-path="url(#a)" fill="#fff"><path d="M23.686 30.722a1.76 1.76 0 0 0 1.757-1.758 1.76 1.76 0 0 0-1.757-1.757c-.763 0-1.407.492-1.65 1.172h-2.45v-3.515h2.45c.243.68.887 1.172 1.65 1.172a1.76 1.76 0 0 0 1.757-1.758 1.76 1.76 0 0 0-1.757-1.757c-.763 0-1.407.492-1.65 1.172h-2.45v-3.515h2.45c.243.68.887 1.172 1.65 1.172a1.76 1.76 0 0 0 1.757-1.757 1.76 1.76 0 0 0-1.757-1.758c-.763 0-1.407.492-1.65 1.172h-2.45v-1.172h-1.172v-2.45a1.755 1.755 0 0 0 1.172-1.65 1.76 1.76 0 0 0-1.758-1.757 1.76 1.76 0 0 0-1.757 1.757c0 .763.492 1.407 1.172 1.65v2.45h-3.515v-2.45a1.755 1.755 0 0 0 1.172-1.65 1.76 1.76 0 0 0-1.757-1.757 1.76 1.76 0 0 0-1.758 1.757c0 .763.492 1.407 1.172 1.65v2.45H9.042v-2.45a1.755 1.755 0 0 0 1.172-1.65 1.76 1.76 0 0 0-1.757-1.757 1.76 1.76 0 0 0-1.758 1.757c0 .763.492 1.407 1.172 1.65v2.45H6.699v1.172H4.25a1.755 1.755 0 0 0-1.65-1.172 1.76 1.76 0 0 0-1.757 1.758A1.76 1.76 0 0 0 2.6 21.35c.763 0 1.407-.492 1.65-1.172h2.45v3.515H4.25a1.755 1.755 0 0 0-1.65-1.172A1.76 1.76 0 0 0 .842 24.28 1.76 1.76 0 0 0 2.6 26.036c.763 0 1.407-.492 1.65-1.172h2.45v3.515H4.25a1.755 1.755 0 0 0-1.65-1.172 1.76 1.76 0 0 0-1.757 1.757A1.76 1.76 0 0 0 2.6 30.722c.763 0 1.407-.492 1.65-1.172h2.45v1.172h1.172v2.45a1.755 1.755 0 0 0-1.172 1.65 1.76 1.76 0 0 0 1.758 1.757 1.76 1.76 0 0 0 1.757-1.757c0-.763-.492-1.407-1.172-1.65v-2.45h3.515v2.45a1.755 1.755 0 0 0-1.172 1.65 1.76 1.76 0 0 0 1.758 1.757 1.76 1.76 0 0 0 1.757-1.757c0-.763-.492-1.407-1.172-1.65v-2.45h3.515v2.45a1.755 1.755 0 0 0-1.172 1.65 1.76 1.76 0 0 0 1.757 1.757 1.76 1.76 0 0 0 1.758-1.757c0-.763-.492-1.407-1.172-1.65v-2.45h1.172V29.55h2.45c.243.68.887 1.172 1.65 1.172Zm0-2.343a.586.586 0 1 1 0 1.172.586.586 0 0 1 0-1.172Zm0-4.686a.586.586 0 1 1 0 1.172.586.586 0 0 1 0-1.172Zm0-4.686a.586.586 0 1 1 0 1.172.586.586 0 0 1 0-1.172ZM2.599 20.178a.586.586 0 1 1 0-1.172.586.586 0 0 1 0 1.172Zm0 4.686a.586.586 0 1 1 0-1.172.586.586 0 0 1 0 1.172Zm0 4.686a.586.586 0 1 1 0-1.172.586.586 0 0 1 0 1.172Zm15.23-16.4a.586.586 0 1 1-.002 1.172.586.586 0 0 1 .001-1.173Zm-4.686 0a.586.586 0 1 1-.002 1.172.586.586 0 0 1 .002-1.173Zm-4.686 0a.586.586 0 1 1-.002 1.172.586.586 0 0 1 .002-1.173Zm0 22.258a.586.586 0 1 1 0-1.172.586.586 0 0 1 0 1.172Zm4.686 0a.586.586 0 1 1 0-1.172.586.586 0 0 1 0 1.172Zm4.685 0a.586.586 0 1 1 0-1.172.586.586 0 0 1 0 1.172Zm.586-5.858H7.871V19.007h10.543V29.55Z"/><path d="M34.519 9.634v.001a9.29 9.29 0 0 0-1.004-2.416l1.868-1.868-3.314-3.313-1.868 1.868a9.267 9.267 0 0 0-2.415-1.004V.263H23.1v2.639a9.286 9.286 0 0 0-2.415 1.004l-1.868-1.869-3.314 3.313 1.868 1.869a9.29 9.29 0 0 0-1.004 2.415h-2.053v1.172h2.998l.095-.47a8.12 8.12 0 0 1 1.196-2.878l.264-.4L17.16 5.35l1.657-1.656 1.709 1.708.398-.264a8.109 8.109 0 0 1 2.88-1.196l.468-.095V1.435h2.343v2.412l.47.096a8.11 8.11 0 0 1 2.879 1.196l.398.264 1.709-1.709 1.657 1.657L32.02 7.06l.264.398a8.117 8.117 0 0 1 1.196 2.88l.095.469h2.412v2.342h-2.412l-.095.47a8.11 8.11 0 0 1-1.196 2.878l-.264.4 1.708 1.708-1.657 1.657-1.709-1.709-.398.265a8.105 8.105 0 0 1-2.88 1.196l-.468.095v2.998h1.17v-2.053a9.252 9.252 0 0 0 2.416-1.004l1.868 1.868 3.314-3.314-1.868-1.868a9.29 9.29 0 0 0 1.004-2.416h2.639V9.634h-2.639Z"/><path d="M25.443 16.664v1.171a5.864 5.864 0 0 0 5.857-5.857 5.864 5.864 0 0 0-5.857-5.857 5.864 5.864 0 0 0-5.857 5.857h1.171a4.691 4.691 0 0 1 4.686-4.686 4.691 4.691 0 0 1 4.686 4.686 4.691 4.691 0 0 1-4.686 4.686ZM17.243 20.178h-8.2v1.172h8.2v-1.172ZM17.243 27.207H16.07v1.172h1.172v-1.172ZM14.9 27.207H9.043v1.172H14.9v-1.172ZM22.398 35.067l.233 1.148a18.102 18.102 0 0 0 14.163-14.163l-1.149-.233a16.927 16.927 0 0 1-13.247 13.248ZM15.602 1.775 15.369.627A18.102 18.102 0 0 0 1.206 14.79l1.148.233A16.93 16.93 0 0 1 15.602 1.775Z"/></g><defs><clipPath id="a"><path fill="#fff" transform="translate(.842 .263)" d="M0 0h36.316v36.316H0z"/></clipPath></defs></svg>