<svg width="42" height="37" fill="none" xmlns="http://www.w3.org/2000/svg"><g clip-path="url(#a)" fill="#fff"><path d="M34.825.002c-3.202 0-5.731 2.695-5.731 6.053s2.57 6.01 5.731 6.01c3.163 0 5.772-2.694 5.772-6.052 0-3.358-2.57-6.011-5.772-6.011Zm0 10.737c-2.49 0-4.506-2.114-4.506-4.726s2.056-4.684 4.506-4.684c2.49 0 4.507 2.114 4.507 4.726 0 2.611-2.016 4.684-4.507 4.684Z"/><path d="M36.644 6.967c-.04-.125-.04-.208-.119-.332-.04-.083-.079-.207-.158-.29-.079-.083-.118-.166-.197-.249-.08-.083-.159-.166-.277-.207-.08-.083-.198-.125-.277-.166-.118-.042-.198-.124-.316-.166a2.642 2.642 0 0 1-.316-.124c-.04 0-.119-.042-.159-.083-.04-.042-.118-.042-.158-.083-.04-.042-.118-.042-.158-.083l-.118-.124c-.04-.042-.08-.083-.08-.166-.039-.042-.039-.125-.039-.166v-.207c0-.042.04-.125.04-.166.04-.042.04-.125.079-.166l.118-.124a.295.295 0 0 1 .198-.083c.079-.042.118-.042.197-.042h.238c.079 0 .118 0 .197.042.08 0 .159.041.198.041.04 0 .119.042.158.042.08 0 .119.041.158.041l.198.083.04-.249.078-.663v-.166l-.158-.041c-.04 0-.118-.042-.158-.042-.04 0-.079-.041-.158-.041-.04 0-.118-.042-.197-.042-.08 0-.12-.041-.198-.041h-.04V2.116H34.312v.829h-.04c-.118.042-.237.083-.356.166-.118.042-.197.125-.276.207-.08.083-.159.166-.238.29-.079.084-.118.208-.158.332l-.118.373c-.04.125-.04.29-.04.415 0 .124 0 .207.04.332.04.124.04.207.118.331.04.083.119.208.158.29.08.083.119.166.198.25.08.082.158.165.277.207.079.082.197.124.276.165.119.042.238.125.317.166.118.042.237.083.316.125.04 0 .118.041.158.082.04.042.119.042.158.083.04.042.08.083.119.083l.118.125c.04.041.04.083.08.165 0 .042.039.125.039.208v.207a.32.32 0 0 1-.08.166l-.118.124c-.04.042-.079.083-.158.125-.04.041-.118.041-.158.082-.04 0-.119.042-.198.042h-.513c-.08 0-.159-.042-.198-.042a.544.544 0 0 1-.237-.082c-.08-.042-.158-.042-.238-.083-.039 0-.079-.042-.118-.042-.04 0-.08-.041-.119-.041l-.237-.125-.04.29-.078.747v.124l.118.042c.158-.042.237 0 .356.041.079.042.198.083.277.083.079.041.197.041.316.083.119.041.198.041.316.041h.08v.83h.948V9.08h.04c.118-.042.237-.083.355-.166.119-.041.198-.124.316-.207.08-.083.158-.166.238-.29.079-.083.118-.208.197-.332l.119-.373c.04-.125.04-.249.04-.415 0-.124 0-.207-.04-.331ZM32.058 12.854c-.197-.29-.632-.332-.909-.125l-6.404 5.348-8.261-3.607a.606.606 0 0 0-.593.083l-8.855 6.633a.683.683 0 0 0-.158.912.57.57 0 0 0 .514.29.618.618 0 0 0 .356-.124l8.578-6.426 8.3 3.607a.683.683 0 0 0 .633-.083l6.68-5.555c.278-.207.317-.663.12-.954Z"/><path d="M41.308 35.572h-2.925V16.377c0-.373-.277-.663-.632-.663H31.94c-.356 0-.633.29-.633.663v19.195h-2.134V23.01c0-.373-.277-.663-.633-.663h-5.85c-.356 0-.633.29-.633.663v12.562h-2.134V22.015c0-.373-.277-.663-.633-.663h-5.81c-.356 0-.633.29-.633.663v13.557h-2.134v-9.66c0-.373-.277-.663-.633-.663H4.23c-.356 0-.633.29-.633.663v9.66H.632c-.355 0-.632.29-.632.663 0 .373.277.663.632.663H41.27c.355 0 .632-.29.632-.663a.587.587 0 0 0-.593-.663Zm-31.9 0H4.862v-8.996h4.546v8.996Zm9.25 0h-4.546V22.679h4.546v12.893Zm9.21 0h-4.546V23.674h4.546v11.898Zm9.25 0h-4.546V17.04h4.546v18.53Z"/></g><defs><clipPath id="a"><path fill="#fff" d="M0 0h42v37H0z"/></clipPath></defs></svg>