<svg width="42" height="42" fill="none" xmlns="http://www.w3.org/2000/svg"><path d="M21 33.377A12.378 12.378 0 1133.377 21 12.391 12.391 0 0121 33.377zm0-23.62A11.242 11.242 0 1032.242 21 11.255 11.255 0 0021 9.758z" fill="#fff"/><path d="M21 30.444A9.445 9.445 0 1130.444 21 9.455 9.455 0 0121 30.444zm0-17.753A8.309 8.309 0 1029.31 21 8.319 8.319 0 0021 12.69z" fill="#fff"/><path d="M21.945 21.182H19.06a.567.567 0 01-.568-.568v-4.64a.567.567 0 01.568-.567h2.886a2.887 2.887 0 110 5.775zm-2.319-1.135h2.32a1.752 1.752 0 100-3.505h-2.32v3.505z" fill="#fff"/><path d="M22.683 25.824h-3.624a.568.568 0 01-.568-.567v-4.643a.568.568 0 01.568-.567h3.624a2.888 2.888 0 010 5.775v.002zm-3.057-1.135h3.057a1.752 1.752 0 100-3.505h-3.057v3.505zm-.567-8.147h-.829a.568.568 0 010-1.135h.829a.567.567 0 110 1.135z" fill="#fff"/><path d="M19.524 16.542a.567.567 0 01-.567-.568V14.93a.568.568 0 011.135 0v1.044a.568.568 0 01-.568.568zm1.808 0a.567.567 0 01-.568-.568V14.93a.568.568 0 011.135 0v1.044a.568.568 0 01-.567.568zm-1.808 10.324a.568.568 0 01-.567-.568v-1.041a.568.568 0 011.135 0V26.3a.568.568 0 01-.568.566zm1.808 0a.568.568 0 01-.568-.568v-1.041a.568.568 0 011.135 0V26.3a.568.568 0 01-.567.566z" fill="#fff"/><path d="M19.059 25.824h-.829a.567.567 0 110-1.135h.829a.568.568 0 010 1.135zM21 9.758a.567.567 0 01-.568-.568V5.253a.567.567 0 111.136 0V9.19a.567.567 0 01-.568.568z" fill="#fff"/><path d="M21 5.821a2.343 2.343 0 110-4.686 2.343 2.343 0 010 4.686zm0-3.55a1.208 1.208 0 100 2.414 1.208 1.208 0 000-2.415zm0 35.043a.568.568 0 01-.568-.567V32.81a.567.567 0 111.136 0v3.937a.567.567 0 01-.568.567z" fill="#fff"/><path d="M21 40.865a2.343 2.343 0 110-4.685 2.343 2.343 0 010 4.685zm0-3.55a1.207 1.207 0 100 2.413 1.207 1.207 0 000-2.414zm15.747-15.748H32.81a.568.568 0 010-1.135h3.937a.568.568 0 010 1.136z" fill="#fff"/><path d="M38.521 23.343a2.343 2.343 0 110-4.687 2.343 2.343 0 010 4.687zm0-3.55a1.208 1.208 0 100 2.415 1.208 1.208 0 000-2.416zM9.19 21.567H5.253a.568.568 0 010-1.135H9.19a.568.568 0 010 1.136z" fill="#fff"/><path d="M3.478 23.343a2.343 2.343 0 110-4.687 2.343 2.343 0 010 4.687zm0-3.55a1.208 1.208 0 100 2.415 1.208 1.208 0 000-2.416zm7.703 14.901H6.65a.568.568 0 010-1.135h4.218l2.27-3.641a.568.568 0 11.966.6l-2.436 3.909a.567.567 0 01-.487.267z" fill="#fff"/><path d="M4.875 36.47a2.343 2.343 0 11.001-4.686 2.343 2.343 0 010 4.686zm0-3.551a1.208 1.208 0 10.002 2.417 1.208 1.208 0 00-.002-2.417zm8.747-20.569a.568.568 0 01-.483-.268l-2.27-3.641h-4.22a.568.568 0 010-1.135h4.532a.567.567 0 01.482.267l2.436 3.909a.568.568 0 01-.477.868z" fill="#fff"/><path d="M4.875 10.216a2.343 2.343 0 11.001-4.686 2.343 2.343 0 010 4.686zm0-3.55a1.208 1.208 0 10.001 2.415 1.208 1.208 0 000-2.415zM35.35 34.694h-4.53a.568.568 0 01-.482-.267l-2.439-3.909a.568.568 0 11.965-.6l2.27 3.641h4.22a.568.568 0 010 1.135h-.003z" fill="#fff"/><path d="M37.125 36.47a2.343 2.343 0 110-4.687 2.343 2.343 0 010 4.687zm0-3.551a1.208 1.208 0 100 2.416 1.208 1.208 0 000-2.416zM28.378 12.35a.568.568 0 01-.48-.868l2.435-3.909a.568.568 0 01.482-.267h4.534a.567.567 0 110 1.135h-4.217l-2.27 3.641a.568.568 0 01-.483.268z" fill="#fff"/><path d="M37.125 10.216a2.343 2.343 0 110-4.686 2.343 2.343 0 010 4.686zm0-3.55a1.208 1.208 0 100 2.415 1.208 1.208 0 000-2.415z" fill="#fff"/></svg>