<svg width="38" height="38" fill="none" xmlns="http://www.w3.org/2000/svg"><path d="M3.064 33.697H19V32.47H3.064a1.839 1.839 0 01-1.838-1.84V3.665c0-1.016.823-1.839 1.838-1.839h26.968c1.016 0 1.839.823 1.839 1.84V17.76h1.226V3.664A3.068 3.068 0 0030.032.6H3.064A3.068 3.068 0 000 3.664v26.968a3.069 3.069 0 003.064 3.065z" fill="#000"/><path d="M2.452 3.052h1.225v1.225H2.452V3.052zm2.451 0H6.13v1.225H4.903V3.052zm2.452 0H8.58v1.225H7.355V3.052zM2.452 5.503h28.193v1.226H2.452V5.503zM8.76 8.134L7.203 9.691a3.074 3.074 0 10.867.867L9.627 9l-.867-.867zm-3.244 5.95a1.839 1.839 0 010-3.678c.273.001.542.064.788.184l-1.221 1.22.866.868 1.222-1.22c.12.245.183.514.184.787a1.838 1.838 0 01-1.84 1.839zm4.904-3.678h10.418v1.226H10.42v-1.226zm0 2.452h4.29v1.226h-4.29v-1.226zm5.516 0h8.58v1.226h-8.58v-1.226zm6.128-2.452h6.13v1.226h-6.13v-1.226zM8.76 15.489l-1.557 1.557a3.074 3.074 0 10.867.866l1.557-1.556-.867-.867zm-3.244 5.95a1.839 1.839 0 010-3.678c.273 0 .542.064.788.184l-1.221 1.221.866.866 1.222-1.22c.12.245.183.514.184.788a1.839 1.839 0 01-1.84 1.838zm4.904-3.679h10.418v1.227H10.42V17.76zm0 2.453h4.29v1.225h-4.29v-1.225zm5.516 0h4.903v1.225h-4.903v-1.225zm6.128-2.453h2.452v1.227h-2.451V17.76zM8.76 22.844L7.203 24.4a3.074 3.074 0 10.867.866l1.557-1.556-.867-.867zm-3.244 5.95a1.839 1.839 0 010-3.678c.273 0 .542.063.788.184l-1.221 1.22.866.867 1.222-1.22c.12.245.183.514.184.787a1.839 1.839 0 01-1.84 1.84zm4.904-3.678h7.967v1.226h-7.968v-1.226zm0 2.451h4.29v1.226h-4.29v-1.226zm5.516 0h2.451v1.226h-2.451v-1.226zm12.87 9.807A9.193 9.193 0 0038 28.18a9.193 9.193 0 10-18.387 0 9.204 9.204 0 009.194 9.194zm0-17.161a7.968 7.968 0 11-7.968 7.967 7.977 7.977 0 017.968-7.967z" fill="#000"/><path d="M25.068 28.52l-1.097.547 1.226 2.452a.612.612 0 00.979.16l7.354-7.356-.866-.866-6.754 6.753-.842-1.69z" fill="#000"/><path d="M3.064 33.697H19V32.47H3.064a1.839 1.839 0 01-1.838-1.84V3.665c0-1.016.823-1.839 1.838-1.839h26.968c1.016 0 1.839.823 1.839 1.84V17.76h1.226V3.664A3.068 3.068 0 0030.032.6H3.064A3.068 3.068 0 000 3.664v26.968a3.069 3.069 0 003.064 3.065z" fill="#fff"/><path d="M2.452 3.052h1.225v1.225H2.452V3.052zm2.451 0H6.13v1.225H4.903V3.052zm2.452 0H8.58v1.225H7.355V3.052zM2.452 5.503h28.193v1.226H2.452V5.503zM8.76 8.134L7.203 9.691a3.074 3.074 0 10.867.867L9.627 9l-.867-.867zm-3.244 5.95a1.839 1.839 0 010-3.678c.273.001.542.064.788.184l-1.221 1.22.866.868 1.222-1.22c.12.245.183.514.184.787a1.838 1.838 0 01-1.84 1.839zm4.904-3.678h10.418v1.226H10.42v-1.226zm0 2.452h4.29v1.226h-4.29v-1.226zm5.516 0h8.58v1.226h-8.58v-1.226zm6.128-2.452h6.13v1.226h-6.13v-1.226zM8.76 15.489l-1.557 1.557a3.074 3.074 0 10.867.866l1.557-1.556-.867-.867zm-3.244 5.95a1.839 1.839 0 010-3.678c.273 0 .542.064.788.184l-1.221 1.221.866.866 1.222-1.22c.12.245.183.514.184.788a1.839 1.839 0 01-1.84 1.838zm4.904-3.679h10.418v1.227H10.42V17.76zm0 2.453h4.29v1.225h-4.29v-1.225zm5.516 0h4.903v1.225h-4.903v-1.225zm6.128-2.453h2.452v1.227h-2.451V17.76zM8.76 22.844L7.203 24.4a3.074 3.074 0 10.867.866l1.557-1.556-.867-.867zm-3.244 5.95a1.839 1.839 0 010-3.678c.273 0 .542.063.788.184l-1.221 1.22.866.867 1.222-1.22c.12.245.183.514.184.787a1.839 1.839 0 01-1.84 1.84zm4.904-3.678h7.967v1.226h-7.968v-1.226zm0 2.451h4.29v1.226h-4.29v-1.226zm5.516 0h2.451v1.226h-2.451v-1.226zm12.87 9.807A9.193 9.193 0 0038 28.18a9.193 9.193 0 10-18.387 0 9.204 9.204 0 009.194 9.194zm0-17.161a7.968 7.968 0 11-7.968 7.967 7.977 7.977 0 017.968-7.967z" fill="#fff"/><path d="M25.068 28.52l-1.097.547 1.226 2.452a.612.612 0 00.979.16l7.354-7.356-.866-.866-6.754 6.753-.842-1.69z" fill="#fff"/></svg>