<svg width="38" height="38" fill="none" xmlns="http://www.w3.org/2000/svg"><g clip-path="url(#a)" fill="#fff"><path d="M21.488 6.726c-1.818-1.877-4.235-2.91-6.806-2.91-2.571 0-4.989 1.033-6.807 2.91-3.753 3.874-3.753 10.178 0 14.052 1.818 1.877 4.236 2.91 6.807 2.91 2.571 0 4.988-1.033 6.806-2.91 1.818-1.876 2.82-4.372 2.82-7.026s-1.002-5.15-2.82-7.026zm-12.838.8c1.611-1.663 3.753-2.578 6.032-2.578 2.278 0 4.42.915 6.031 2.578a8.838 8.838 0 012.381 4.762l-2.988 3.016a1.894 1.894 0 00-.957-.26 1.94 1.94 0 00-1.624.898l-4.391-1.422v-.04c0-1.112-.876-2.016-1.953-2.016s-1.953.904-1.953 2.016c0 .364.094.705.257 1l-2.304 2.465c-1.748-3.337-1.259-7.602 1.47-10.419zm11.357 9.535c0 .488-.385.885-.858.885-.472 0-.857-.397-.857-.885s.385-.885.857-.885c.473 0 .858.397.858.885zm-7.969-2.58c0 .487-.384.884-.857.884s-.857-.397-.857-.885.384-.885.857-.885.857.397.857.885zm8.675 5.497c-1.611 1.663-3.753 2.58-6.031 2.58-2.279 0-4.42-.917-6.032-2.58a8.74 8.74 0 01-.867-1.047l2.491-2.666c.272.148.58.232.907.232.677 0 1.274-.357 1.624-.898l4.392 1.423-.001.04c0 1.111.876 2.016 1.953 2.016 1.078 0 1.954-.905 1.954-2.017 0-.342-.084-.665-.23-.948l2.338-2.36c0 2.351-.887 4.562-2.498 6.225z"/><path d="M9.828 7.98l.719.854a6.177 6.177 0 016.22-1.227l.36-1.069a7.25 7.25 0 00-7.3 1.442zm8.707-.756l-.57.966c.29.183.568.392.827.622l.715-.858a7.42 7.42 0 00-.972-.73zM15.993 20.12a6.136 6.136 0 01-3.666-.326l-.408 1.05a7.2 7.2 0 004.3.383l-.226-1.107z"/><path d="M28.413 22.843l-.796.822-1.974-2.179c2.337-3.527 2.9-7.938 1.687-11.891l1.567-1.582c.276.154.59.241.925.241 1.077 0 1.954-.904 1.954-2.016 0-.33-.078-.64-.214-.915l3.364-3.395v1.755h1.096V.017h-3.55V1.15h1.657L30.81 4.5a1.895 1.895 0 00-.988-.278c-1.077 0-1.953.905-1.953 2.017 0 .356.09.69.247.98l-1.2 1.212a13.666 13.666 0 00-2.846-4.369 13 13 0 00-18.776 0c-4.611 4.76-5.115 12.18-1.51 17.52l-.924.988a1.892 1.892 0 00-.907-.231C.876 22.338 0 23.242 0 24.354s.876 2.017 1.954 2.017c1.077 0 1.953-.905 1.953-2.017 0-.363-.094-.704-.258-1l.806-.862c.263.327.542.645.839.95 2.588 2.673 5.988 4.009 9.388 4.009 2.61 0 5.22-.789 7.462-2.363l1.98 2.184-.824.85 9.586 9.86L38 32.705l-9.587-9.86zm1.41-17.49c.472 0 .857.397.857.885s-.385.885-.858.885c-.472 0-.857-.397-.857-.885s.385-.885.857-.885zM1.952 25.239c-.472 0-.857-.397-.857-.885s.385-.885.858-.885c.472 0 .857.397.857.885s-.385.885-.857.885zm4.116-2.596C1.32 17.74 1.32 9.764 6.07 4.862c2.375-2.451 5.494-3.677 8.613-3.677 3.119 0 6.238 1.226 8.612 3.677 4.75 4.902 4.75 12.879 0 17.78a11.926 11.926 0 01-17.225 0zm16.96 1.766a13.506 13.506 0 001.948-2.002l1.865 2.058-1.943 2.006-1.87-2.062zm9.856 11.975l-8.033-8.264 3.563-3.678 8.033 8.264-3.563 3.678z"/><path d="M28.414 26.085l-1.569 1.62.776.8.793-.82 3.026 3.124.775-.8-3.8-3.924zm4.743 4.89l-.775.804.808.838.776-.804-.81-.838zM7.036 28.03H5.94v1.233h1.096V28.03zm0 6.91H5.94v1.234h1.096V34.94zm9.029-4.532h-1.097v1.233h1.097v-1.233zM31.776 20.23H30.68v1.233h1.096V20.23zm1.244-9.82h-1.097v1.234h1.097V10.41zm3.633 5.2h-1.097v1.233h1.097V15.61z"/></g><defs><clipPath id="a"><path fill="#fff" d="M0 0h38v38H0z"/></clipPath></defs></svg>